# AST/ASF file generated using VICON BodyLanguage
# -----------------------------------------------
:version 1.10
:name VICON
:units
  mass 1.0
  length 0.45
  angle deg
:documentation
   .ast/.asf automatically generated from VICON data using
   VICON BodyBuilder and BodyLanguage model FoxedUp or BRILLIANT.MOD
:root
   order TX TY TZ RX RY RZ
   axis XYZ
   position 0 0 0  
   orientation 0 0 0 
:bonedata
  begin
     id 1 
     name lhipjoint
     direction 0.596438 -0.722117 0.35044 
     length 2.43043 
     axis 0 0 0  XYZ
  end
  begin
     id 2 
     name lfemur
     direction 0.34202 -0.939693 0  
     length 7.0339  
     axis 0 0 20  XYZ
    dof rx ry rz
    limits (-160.0 20.0)
           (-70.0 70.0)
           (-60.0 70.0)
  end
  begin
     id 3 
     name ltibia
     direction 0.34202 -0.939693 0   
     length 7.56602   
     axis 0 0 20   XYZ
    dof rx
    limits (-10.0 170.0)
  end
  begin
     id 4 
     name lfoot
     direction 0.0985677 -0.270812 0.957572   
     length 1.85172   
     axis -90 7.62852e-016 20   XYZ
    dof rx rz
    limits (-45.0 90.0)
           (-70.0 20.0)
  end
  begin
     id 5 
     name ltoes
     direction 1.53534e-011 -4.21843e-011 1   
     length 0.929904   
     axis -90 7.62852e-016 20   XYZ
    dof rx
    limits (-90.0 20.0)
  end
  begin
     id 6 
     name rhipjoint
     direction -0.585088 -0.729594 0.354068   
     length 2.40552  
     axis 0 0 0  XYZ 
  end
  begin
     id 7 
     name rfemur
     direction -0.34202 -0.939693 0   
     length 7.12573   
     axis 0 0 -20   XYZ
    dof rx ry rz
    limits (-160.0 20.0)
           (-70.0 70.0)
           (-70.0 60.0)
  end
  begin
     id 8 
     name rtibia
     direction -0.34202 -0.939693 0   
     length 7.35777   
     axis 0 0 -20   XYZ
    dof rx
    limits (-10.0 170.0)
 end
 begin
     id 9 
     name rfoot
     direction -0.120907 -0.33219 0.935431   
     length 2.0994  
     axis -90 -7.62852e-016 -20   XYZ
    dof rx rz
    limits (-45.0 90.0)
           (-20.0 70.0)
  end
  begin
     id 10 
     name rtoes
     direction -1.53577e-011 -4.21787e-011 1   
     length 1.04244   
     axis -90 -7.62852e-016 -20   XYZ
    dof rx
    limits (-90.0 20.0)
  end
  begin
     id 11 
     name lowerback
     direction 0.00268363 0.993603 -0.112896   
     length 2.15839   
     axis 0 0 0   XYZ
    dof rx ry rz
    limits (-20.0 45.0)
           (-30.0 30.0)
           (-30.0 30.0)
  end
  begin
     id 12 
     name upperback
     direction 0.0272563 0.999411 -0.0208618   
     length 2.16443   
     axis 0 0 0   XYZ
    dof rx ry rz
    limits (-20.0 45.0)
           (-30.0 30.0)
           (-30.0 30.0)
  end
  begin
     id 13 
     name thorax
     direction 0.0254655 0.999174 0.0316806   
     length 2.19003   
     axis 0 0 0   XYZ
    dof rx ry rz
    limits (-20.0 45.0)
           (-30.0 30.0)
           (-30.0 30.0)
  end
  begin
     id 14 
     name lowerneck
     direction -0.0102178 0.988048 0.15381   
     length 1.61507   
     axis 0 0 0   XYZ
    dof rx ry rz
    limits (-20.0 45.0)
           (-30.0 30.0)
           (-30.0 30.0)
  end
  begin
     id 15 
     name upperneck
     direction -0.0061965 0.994088 -0.108398   
     length 1.64042   
     axis 0 0 0   XYZ
    dof rx ry rz
    limits (-20.0 45.0)
           (-30.0 30.0)
           (-30.0 30.0)
  end
  begin
     id 16
     name head
     direction -0.00151929 0.998591 -0.0530385  
     length 1.64343  
     axis 0 0 0   XYZ
    dof rx ry rz
    limits (-20.0 45.0)
           (-30.0 30.0)
           (-30.0 30.0)
  end
  begin
     id 17 
     name lclavicle
     direction 0.948974 0.284245 -0.136574  
     length 3.3483  
     axis 0 0 0   XYZ
    dof ry rz
    limits (-20.0 10.0)
           (0.0 20.0)
  end
  begin
     id 18 
     name lhumerus
     direction 1 -4.48961e-011 1.68576e-027   
     length 4.93485   
     axis -180 -30 -90   XYZ
    dof rx ry rz
    limits (-60.0 90.0)
           (-90.0 90.0)
           (-90.0 90.0)
  end
  begin
     id 19
     name lradius
     direction 1 -4.48965e-011 -2.46405e-027   
     length 3.41719   
     axis -180 -30 -90   XYZ
    dof rx
    limits (-10.0 170.0)
  end
  begin
     id 20
     name lwrist
     direction 1 -4.48968e-011 -8.00486e-028   
     length 1.7086   
     axis 3.27501e-015 90 90   XYZ
    dof ry
    limits (-180.0 0.0)
 end
  begin
     id 21 
     name lhand
     direction 1 -4.48977e-011 -1.60161e-027   
     length 0.6241   
     axis 1.02148e-015 90 90   XYZ
    dof rx rz
    limits (-90.0 90.0)
           (-45.0 45.0)
  end
  begin
     id 22 
     name lfingers
     direction 1 -4.49049e-011 -3.21275e-027   
     length 0.503166   
     axis 2.04295e-015 90 90   XYZ
    dof rx
    limits (0.0 90.0)
  end
  begin
     id 23
     name lthumb
     direction 0.707107 -6.34975e-011 0.707107   
     length 0.722448   
     axis -90 45 -1.62303e-014   XYZ
    dof rx rz
    limits (-45.0 45.0)
           (-45.0 45.0)
  end
  begin
     id 24 
     name rclavicle
     direction -0.904485 0.355099 -0.236246   
     length 3.18329  
     axis 0 0 0   XYZ 
    dof ry rz
    limits (-10.0 20.0)
           (-20.0 0.0)
  end
  begin
     id 25 
     name rhumerus
     direction -1 -4.48953e-011 1.32816e-027  
     length 5.22034   
     axis -180 30 90   XYZ
    dof rx ry rz
    limits (-90.0 60.0)
           (-90.0 90.0)
           (-90.0 90.0)
  end
  begin
     id 26 
     name rradius
     direction -1 -4.48965e-011 -3.93727e-027   
     length 3.41809   
     axis -180 30 90   XYZ
    dof rx
    limits (-10.0 170.0)
  end
  begin
     id 27 
     name rwrist
     direction -1 -4.48962e-011 -8.003e-028   
     length 1.70904   
     axis 3.27501e-015 -90 -90   XYZ
    dof ry
    limits (-180.0 0.0)
  end
  begin
     id 28
     name rhand
     direction -1 -4.49008e-011 -1.60365e-027   
     length 0.77534   
     axis 1.02148e-015 -90 -90   XYZ
    dof rx rz
    limits (-90.0 90.0)
           (-45.0 45.0)
  end
  begin
     id 29
     name rfingers
     direction -1 -4.49001e-011 -3.2064e-027   
     length 0.625099   
     axis 2.04295e-015 -90 -90   XYZ
    dof rx
    limits (0.0 90.0)
  end
  begin
     id 30
     name rthumb
     direction -0.707107 -6.34989e-011 0.707107   
     length 0.897521   
     axis -90 -45 1.62303e-014   XYZ
    dof rx rz
    limits (-45.0 45.0)
           (-45.0 45.0)
  end
:hierarchy
  begin
    root lhipjoint rhipjoint lowerback
    lhipjoint lfemur
    lfemur ltibia
    ltibia lfoot
    lfoot ltoes
    rhipjoint rfemur
    rfemur rtibia
    rtibia rfoot
    rfoot rtoes
    lowerback upperback
    upperback thorax
    thorax lowerneck lclavicle rclavicle
    lowerneck upperneck
    upperneck head
    lclavicle lhumerus
    lhumerus lradius
    lradius lwrist
    lwrist lhand lthumb
    lhand lfingers
    rclavicle rhumerus
    rhumerus rradius
    rradius rwrist
    rwrist rhand rthumb
    rhand rfingers
  end

#!OML:ASF \\sashay\E\Suitcase\Project 1\Capture day 1\Session 1\Male1.ASF
:FULLY-SPECIFIED
:DEGREES
650
root 0.365682 17.2939 -6.62131 8.81204 -1.26019 -0.482937
lowerback 3.55215 2.50966 -1.68921
upperback 1.66158 3.29141 0.713314
thorax -0.42078 1.63523 1.54607
lowerneck -12.3921 -0.359394 -4.50796
upperneck 26.9653 0.933256 -1.07083
head 10.708 -0.139809 0.508906
rclavicle -1.91827e-014 6.16232e-015
rhumerus -53.1742 -38.4601 -44.9709
rradius 9.44887
rwrist 13.2395
rhand -8.12336 10.6345
rfingers 7.12502
rthumb 17.7901 -18.5717
lclavicle -1.91827e-014 6.16232e-015
lhumerus -43.1151 10.7194 72.2453
lradius 27.2068
lwrist -9.68536
lhand 4.44447 47.2489
lfingers 7.12502
lthumb 29.84 74.8651
rfemur -6.7683 -5.25859 20.142
rtibia 52.4882
rfoot 10.2599 1.14086
rtoes 8.77364
lfemur -27.3832 -2.75409 -25.5328
ltibia 26.004
lfoot -11.0267 -10.2652
ltoes 28.9225
651
root 0.36561 17.2973 -6.48454 8.58331 -1.41212 0.0496689
lowerback 3.80688 2.592 -2.25359
upperback 1.49798 3.37425 0.514556
thorax -0.754113 1.67993 1.63628
lowerneck -11.9533 -0.420075 -4.6894
upperneck 27.0099 0.796808 -0.821549
head 10.6382 -0.189031 0.611745
rclavicle -1.68967e-014 -9.54166e-015
rhumerus -53.4681 -38.1538 -44.8107
rradius 9.52494
rwrist 12.9201
rhand -7.66536 10.9559
rfingers 7.12502
rthumb 18.2308 -18.2097
lclavicle -1.68967e-014 -9.54166e-015
lhumerus -43.1793 9.57197 72.7448
lradius 28.2271
lwrist -9.40999
lhand 4.77791 47.1492
lfingers 7.12502
lthumb 30.1581 74.7077
rfemur -8.13348 -5.07264 19.5648
rtibia 55.0543
rfoot 10.3562 0.764546
rtoes 8.63975
lfemur -26.4242 -2.69328 -26.1393
ltibia 25.6575
lfoot -11.3483 -10.3897
ltoes 28.56
652
root 0.374028 17.3005 -6.35825 8.31947 -1.28603 0.711519
lowerback 4.07245 2.60618 -2.84852
upperback 1.43847 3.35945 0.236694
thorax -0.979642 1.67519 1.6693
lowerneck -11.6616 -0.479121 -4.57008
upperneck 26.9924 0.626491 -0.672941
head 10.5754 -0.235254 0.623231
rclavicle 1.10325e-014 -7.7526e-015
rhumerus -53.5998 -38.1941 -44.8612
rradius 9.52974
rwrist 13.1335
rhand -7.7311 11.2267
rfingers 7.12502
rthumb 18.1676 -17.9448
lclavicle 1.10325e-014 -7.7526e-015
lhumerus -43.0308 8.21707 73.3218
lradius 29.1811
lwrist -8.57766
lhand 4.45609 46.2216
lfingers 7.12502
lthumb 29.851 73.8358
rfemur -9.34941 -5.32499 18.7637
rtibia 57.4557
rfoot 9.95591 0.583102
rtoes 8.54473
lfemur -25.4267 -2.78612 -26.9391
ltibia 25.3263
lfoot -11.6569 -10.6946
ltoes 28.4187
653
root 0.373256 17.306 -6.23101 8.09384 -1.30301 1.08201
lowerback 4.04181 2.55819 -3.32611
upperback 1.68 3.27967 0.0393306
thorax -0.7249 1.6283 1.74591
lowerneck -12.082 -0.448457 -4.3495
upperneck 26.9824 0.611613 -0.570656
head 10.6526 -0.210363 0.620528
rclavicle -6.65929e-015 2.98177e-015
rhumerus -52.4372 -38.5638 -45.7548
rradius 9.03391
rwrist 12.8015
rhand -8.17659 11.4007
rfingers 7.12502
rthumb 17.7389 -17.8102
lclavicle -6.65929e-015 2.98177e-015
lhumerus -42.6408 6.7616 74.0579
lradius 30.6172
lwrist -6.98784
lhand 4.28676 45.9555
lfingers 7.12502
lthumb 29.6894 73.5986
rfemur -10.6293 -5.21047 18.427
rtibia 59.6636
rfoot 9.17927 0.177957
rtoes 8.80726
lfemur -24.5695 -2.87204 -27.329
ltibia 25.0788
lfoot -11.9344 -10.853
ltoes 28.4693
654
root 0.382969 17.3096 -6.10606 7.81016 -0.904739 1.50969
lowerback 4.28345 2.35777 -3.57542
upperback 1.751 2.99318 -0.110378
thorax -0.775178 1.48464 1.73798
lowerneck -12.2253 -0.429481 -4.56633
upperneck 27.0707 0.636593 -0.343875
head 10.7118 -0.196821 0.742406
rclavicle 3.15074e-014 -2.33572e-014
rhumerus -51.9738 -38.4676 -46.2329
rradius 9.37796
rwrist 12.809
rhand -8.12418 11.3279
rfingers 7.12502
rthumb 17.7894 -17.8784
lclavicle 3.15074e-014 -2.33572e-014
lhumerus -42.1164 6.36581 74.2747
lradius 30.9856
lwrist -6.75682
lhand 4.0482 45.8067
lfingers 7.12502
lthumb 29.4617 73.4901
rfemur -11.6948 -5.57948 17.9799
rtibia 61.6827
rfoot 8.07894 0.011555
rtoes 9.29008
lfemur -23.597 -3.03343 -27.8421
ltibia 24.7992
lfoot -12.145 -11.3898
ltoes 29.0914
655
root 0.374398 17.3123 -5.98065 7.43286 -0.83984 1.63581
lowerback 4.49528 2.44389 -4.0413
upperback 1.76925 3.07962 -0.0665864
thorax -0.905436 1.52841 2.02874
lowerneck -11.9169 -0.514926 -4.48782
upperneck 27.0896 0.48364 -0.354899
head 10.6613 -0.258532 0.705678
rclavicle -1.5381e-014 1.05356e-014
rhumerus -52.0084 -38.4612 -46.1391
rradius 9.57581
rwrist 12.4958
rhand -8.09359 11.0609
rfingers 7.12502
rthumb 17.8188 -18.1428
lclavicle -1.5381e-014 1.05356e-014
lhumerus -42.0839 5.04736 75.0131
lradius 32.2968
lwrist -5.94342
lhand 3.95564 46.0428
lfingers 7.12502
lthumb 29.3733 73.7417
rfemur -12.7125 -5.45688 17.9597
rtibia 63.4978
rfoot 6.8489 -0.320842
rtoes 9.81705
lfemur -22.5846 -2.82768 -27.9794
ltibia 24.5792
lfoot -12.4026 -11.872
ltoes 29.6433
656
root 0.379479 17.3115 -5.85735 7.22549 -0.533896 2.33349
lowerback 4.40993 2.34786 -4.47715
upperback 1.98655 2.94016 -0.430561
thorax -0.626826 1.44956 1.91559
lowerneck -12.2161 -0.565586 -4.44377
upperneck 27.1691 0.373067 -0.187333
head 10.7509 -0.287278 0.744857
rclavicle 1.26228e-014 -8.15017e-015
rhumerus -51.3685 -38.8084 -46.668
rradius 9.62519
rwrist 12.3096
rhand -8.1179 10.5032
rfingers 7.12502
rthumb 17.7954 -18.7025
lclavicle 1.26228e-014 -8.15017e-015
lhumerus -41.148 4.16534 75.2675
lradius 32.668
lwrist -5.32897
lhand 3.17757 44.6645
lfingers 7.12502
lthumb 28.6302 72.4912
rfemur -13.8538 -5.83592 17.1781
rtibia 65.1751
rfoot 5.54062 -0.367067
rtoes 10.3205
lfemur -21.698 -2.88542 -28.7774
ltibia 24.3352
lfoot -12.6474 -12.3756
ltoes 29.946
657
root 0.37128 17.323 -5.7387 7.03164 -0.0768404 2.35887
lowerback 4.74446 2.17588 -4.62686
upperback 1.84926 2.68233 -0.433277
thorax -0.943994 1.32883 1.99458
lowerneck -12.0651 -0.515255 -4.41419
upperneck 27.3472 0.425292 -0.1607
head 10.7859 -0.260126 0.756527
rclavicle -1.24365e-014 -1.44119e-015
rhumerus -51.1299 -38.5359 -46.9252
rradius 9.69036
rwrist 11.9829
rhand -8.19969 11.0685
rfingers 7.12502
rthumb 17.7167 -18.1443
lclavicle -1.24365e-014 -1.44119e-015
lhumerus -40.8912 3.98304 75.2957
lradius 33.2771
lwrist -5.61264
lhand 2.58802 43.3478
lfingers 7.12502
lthumb 28.0668 71.2682
rfemur -14.9981 -5.91959 17.3897
rtibia 66.6148
rfoot 4.17385 -0.946492
rtoes 10.8184
lfemur -20.9146 -2.72071 -28.7884
ltibia 24.1005
lfoot -12.8691 -13.1179
ltoes 29.7729
658
root 0.378632 17.3281 -5.61459 6.76734 0.223744 2.46636
lowerback 4.77701 2.09885 -4.67824
upperback 2.02877 2.58031 -0.515735
thorax -0.768414 1.27156 1.94773
lowerneck -12.4183 -0.536279 -4.23125
upperneck 27.5391 0.40086 -0.253114
head 10.9289 -0.26791 0.689665
rclavicle 3.72349e-014 -3.18055e-015
rhumerus -50.4476 -38.827 -47.4171
rradius 9.66685
rwrist 11.9878
rhand -8.19155 10.752
rfingers 7.12502
rthumb 17.7245 -18.4602
lclavicle 3.72349e-014 -3.18055e-015
lhumerus -40.5652 2.80143 75.7754
lradius 34.6335
lwrist -4.31713
lhand 2.49196 44.6141
lfingers 7.12502
lthumb 27.975 72.5495
rfemur -15.9816 -6.01338 17.3006
rtibia 67.8904
rfoot 2.81208 -1.32607
rtoes 11.0737
lfemur -19.9427 -2.6447 -28.9673
ltibia 23.7604
lfoot -13.1916 -13.5384
ltoes 28.9669
659
root 0.375244 17.3258 -5.49857 6.59846 0.56222 2.80807
lowerback 5.05949 1.98031 -5.06632
upperback 1.88243 2.38183 -0.609963
thorax -1.07395 1.18047 2.06653
lowerneck -12.2143 -0.501133 -4.29869
upperneck 27.6984 0.450583 -0.218802
head 10.9472 -0.250177 0.720422
rclavicle 2.54693e-016 -4.07509e-015
rhumerus -50.2995 -38.5296 -47.5278
rradius 9.78858
rwrist 11.887
rhand -8.32465 10.8898
rfingers 7.12502
rthumb 17.5964 -18.334
lclavicle 2.54693e-016 -4.07509e-015
lhumerus -40.4753 2.16909 75.9266
lradius 35.5905
lwrist -3.5873
lhand 1.65605 44.1351
lfingers 7.12502
lthumb 27.1756 72.1981
rfemur -17.1359 -6.13168 17.0392
rtibia 69.0351
rfoot 1.54244 -1.80459
rtoes 11.3217
lfemur -19.1907 -2.46528 -29.3589
ltibia 23.5022
lfoot -13.4904 -14.1279
ltoes 28.1203
660
root 0.377538 17.327 -5.38418 6.53839 0.944748 3.14308
lowerback 4.88401 1.78826 -5.58925
upperback 2.0014 2.11935 -0.492766
thorax -0.855656 1.04074 2.50405
lowerneck -12.2863 -0.438224 -4.67762
upperneck 27.6666 0.650413 -0.27068
head 10.9472 -0.204703 0.792022
rclavicle -1.56543e-015 1.29707e-014
rhumerus -49.1325 -38.4955 -48.0311
rradius 9.45635
rwrist 11.8348
rhand -8.56204 11.3098
rfingers 7.12502
rthumb 17.368 -17.9342
lclavicle -1.56543e-015 1.29707e-014
lhumerus -40.0786 2.4917 76.23
lradius 36.5928
lwrist -3.42203
lhand 1.44122 43.5291
lfingers 7.12502
lthumb 26.9701 71.6242
rfemur -18.3722 -6.26312 16.7552
rtibia 70.048
rfoot 0.306031 -2.25834
rtoes 11.748
lfemur -18.5933 -2.37157 -29.7545
ltibia 23.3401
lfoot -13.7781 -14.6749
ltoes 27.5137
661
root 0.366508 17.3321 -5.26725 6.31089 1.35688 3.01075
lowerback 4.95918 1.81831 -5.41471
upperback 2.02348 2.16187 -0.60991
thorax -0.868053 1.06279 2.28135
lowerneck -12.0422 -0.521686 -4.41017
upperneck 27.6117 0.441201 -0.225696
head 10.8811 -0.264062 0.735483
rclavicle -1.71359e-014 1.9456e-014
rhumerus -49.3029 -38.8557 -48.0054
rradius 9.63224
rwrist 11.4909
rhand -8.75386 11.3779
rfingers 7.12502
rthumb 17.1834 -17.8823
lclavicle -1.71359e-014 1.9456e-014
lhumerus -39.0414 1.31685 76.4631
lradius 36.6242
lwrist -2.53627
lhand -0.63071 42.8452
lfingers 7.12502
lthumb 24.9861 71.2314
rfemur -19.3567 -6.17924 17.1043
rtibia 70.825
rfoot -0.946023 -2.9661
rtoes 12.4123
lfemur -17.8376 -2.38909 -29.555
ltibia 23.2121
lfoot -14.0426 -15.0201
ltoes 27.0177
662
root 0.370924 17.3127 -5.15557 6.08916 1.77697 3.399
lowerback 5.10666 1.7206 -5.74802
upperback 2.0805 2.0077 -0.672776
thorax -0.887168 0.984347 2.40914
lowerneck -12.0823 -0.50828 -4.63025
upperneck 27.6067 0.502385 -0.175232
head 10.8864 -0.252632 0.799236
rclavicle 6.39217e-015 -1.30701e-014
rhumerus -48.9589 -38.9128 -48.1666
rradius 9.96314
rwrist 11.3778
rhand -8.69161 11.046
rfingers 7.12502
rthumb 17.2433 -18.209
lclavicle 6.39217e-015 -1.30701e-014
lhumerus -38.7711 0.740032 76.7589
lradius 37.8459
lwrist -1.67495
lhand -0.261188 44.1185
lfingers 7.12502
lthumb 25.3402 72.4549
rfemur -20.3725 -6.34126 16.6679
rtibia 71.5659
rfoot -2.18793 -3.37602
rtoes 13.1464
lfemur -17.1151 -2.52061 -30.0158
ltibia 23.1864
lfoot -14.2704 -15.2534
ltoes 26.7239
663
root 0.374125 17.3128 -5.03855 6.01429 2.11399 3.61871
lowerback 5.07 1.60332 -6.00432
upperback 2.08656 1.84285 -0.668237
thorax -0.853807 0.900281 2.56866
lowerneck -12.1389 -0.435031 -4.81939
upperneck 27.5991 0.655676 -0.173539
head 10.8918 -0.202207 0.851777
rclavicle 1.64867e-014 -3.0911e-014
rhumerus -48.0236 -38.9866 -48.5635
rradius 9.29805
rwrist 11.3428
rhand -8.89289 11.7887
rfingers 7.12502
rthumb 17.0495 -17.4831
lclavicle 1.64867e-014 -3.0911e-014
lhumerus -38.2461 0.433057 76.9569
lradius 38.4251
lwrist -1.06416
lhand -0.867535 43.7395
lfingers 7.12502
lthumb 24.7592 72.1571
rfemur -21.4645 -6.2618 16.4753
rtibia 72.0535
rfoot -3.48101 -3.95294
rtoes 13.8932
lfemur -16.5869 -2.34793 -30.2892
ltibia 23.2342
lfoot -14.4835 -15.6834
ltoes 26.6992
664
root 0.375214 17.3078 -4.92974 5.87262 2.73374 3.62584
lowerback 5.12379 1.38377 -5.92815
upperback 2.0691 1.55009 -0.697473
thorax -0.873201 0.755648 2.51304
lowerneck -11.9266 -0.334321 -4.7953
upperneck 27.4645 0.777263 -0.173944
head 10.7955 -0.141133 0.861792
rclavicle 3.00258e-014 -3.64149e-014
rhumerus -47.9322 -38.751 -48.7088
rradius 9.72195
rwrist 10.9274
rhand -8.84771 11.0037
rfingers 7.12502
rthumb 17.093 -18.2644
lclavicle 3.00258e-014 -3.64149e-014
lhumerus -37.7908 0.458334 76.928
lradius 39.1518
lwrist -0.823052
lhand -1.69918 43.4458
lfingers 7.12502
lthumb 23.9619 71.9705
rfemur -22.4486 -6.30268 16.5613
rtibia 72.4152
rfoot -4.90685 -4.63631
rtoes 14.4097
lfemur -16.0144 -2.57099 -30.2883
ltibia 23.2794
lfoot -14.574 -15.9297
ltoes 26.7875
